<svg xmlns="http://www.w3.org/2000/svg" fill="none" viewBox="0 0 205 180" height="180" width="205">
<mask fill="white" id="path-1-inside-1_1134_2692">
<path d="M0 12H12V0H0V12Z"></path>
</mask>
<path mask="url(#path-1-inside-1_1134_2692)" fill="#54504E" d="M0 0H-1V-1H0V0ZM12 0V1H0V0V-1H12V0ZM0 0H1V12H0H-1V0H0Z"></path>
<mask fill="white" id="path-3-inside-2_1134_2692">
<path d="M205 12H193V0H205V12Z"></path>
</mask>
<path mask="url(#path-3-inside-2_1134_2692)" fill="#54504E" d="M205 0H206V-1H205V0ZM193 0V1H205V0V-1H193V0ZM205 0H204V12H205H206V0H205Z"></path>
<mask fill="white" id="path-5-inside-3_1134_2692">
<path d="M0 168H12V180H0V168Z"></path>
</mask>
<path mask="url(#path-5-inside-3_1134_2692)" fill="#54504E" d="M0 180H-1V181H0V180ZM12 180V179H0V180V181H12V180ZM0 180H1V168H0H-1V180H0Z"></path>
<mask fill="white" id="path-7-inside-4_1134_2692">
<path d="M205 168H193V180H205V168Z"></path>
</mask>
<path mask="url(#path-7-inside-4_1134_2692)" fill="#54504E" d="M205 180H206V181H205V180ZM193 180V179H205V180V181H193V180ZM205 180H204V168H205H206V180H205Z"></path>
<rect stroke-width="0.5" stroke="white" height="141" width="141" y="19" x="32"></rect>
<rect stroke-width="0.5" stroke="white" height="87" width="87" y="46" x="59"></rect>
<rect stroke-width="0.5" stroke="white" height="31" width="31" y="74" x="87"></rect>
<path fill="white" d="M83.75 107.998C83.7486 107.86 83.6356 107.749 83.4976 107.75L81.2477 107.772C81.1096 107.773 80.9988 107.886 81.0001 108.024C81.0015 108.162 81.1145 108.273 81.2525 108.272L83.2524 108.252L83.2719 110.252C83.2732 110.39 83.3862 110.501 83.5243 110.5C83.6623 110.499 83.7732 110.386 83.7718 110.247L83.75 107.998ZM32.5 160L32.6785 160.175L33.3868 159.453L33.2083 159.278L33.0298 159.103L32.3215 159.825L32.5 160ZM34.625 157.833L34.8035 158.008L36.2202 156.564L36.0417 156.389L35.8632 156.214L34.4465 157.658L34.625 157.833ZM37.4583 154.944L37.6368 155.119L39.0535 153.675L38.875 153.5L38.6965 153.325L37.2798 154.769L37.4583 154.944ZM40.2917 152.056L40.4702 152.231L41.8868 150.786L41.7083 150.611L41.5298 150.436L40.1132 151.881L40.2917 152.056ZM43.125 149.167L43.3035 149.342L44.7202 147.897L44.5417 147.722L44.3632 147.547L42.9465 148.992L43.125 149.167ZM45.9583 146.278L46.1368 146.453L47.5535 145.008L47.375 144.833L47.1965 144.658L45.7798 146.103L45.9583 146.278ZM48.7917 143.389L48.9702 143.564L50.3868 142.119L50.2083 141.944L50.0299 141.769L48.6132 143.214L48.7917 143.389ZM51.625 140.5L51.8035 140.675L53.2202 139.231L53.0417 139.056L52.8632 138.881L51.4465 140.325L51.625 140.5ZM54.4583 137.611L54.6368 137.786L56.0535 136.342L55.875 136.167L55.6965 135.992L54.2799 137.436L54.4583 137.611ZM57.2917 134.722L57.4701 134.897L58.8868 133.453L58.7083 133.278L58.5298 133.103L57.1132 134.547L57.2917 134.722ZM60.125 131.833L60.3035 132.008L61.7201 130.564L61.5417 130.389L61.3632 130.214L59.9465 131.658L60.125 131.833ZM62.9583 128.944L63.1368 129.12L64.5535 127.675L64.375 127.5L64.1965 127.325L62.7798 128.769L62.9583 128.944ZM65.7917 126.056L65.9701 126.231L67.3868 124.786L67.2083 124.611L67.0298 124.436L65.6132 125.881L65.7917 126.056ZM68.625 123.167L68.8035 123.342L70.2201 121.897L70.0417 121.722L69.8632 121.547L68.4465 122.992L68.625 123.167ZM71.4583 120.278L71.6368 120.453L73.0535 119.008L72.875 118.833L72.6965 118.658L71.2798 120.103L71.4583 120.278ZM74.2917 117.389L74.4701 117.564L75.8868 116.12L75.7083 115.944L75.5298 115.769L74.1132 117.214L74.2917 117.389ZM77.125 114.5L77.3035 114.675L78.7201 113.231L78.5417 113.056L78.3632 112.881L76.9465 114.325L77.125 114.5ZM79.9583 111.611L80.1368 111.786L81.5535 110.342L81.375 110.167L81.1965 109.992L79.7798 111.436L79.9583 111.611ZM82.7917 108.722L82.9701 108.897L83.6785 108.175L83.5 108L83.3215 107.825L82.6132 108.547L82.7917 108.722Z"></path>
<path fill="white" d="M84.25 71C84.25 71.1381 84.1381 71.25 84 71.25H81.75C81.6119 71.25 81.5 71.1381 81.5 71C81.5 70.8619 81.6119 70.75 81.75 70.75H83.75V68.75C83.75 68.6119 83.8619 68.5 84 68.5C84.1381 68.5 84.25 68.6119 84.25 68.75V71ZM32 19L32.1768 18.8232L32.899 19.5454L32.7222 19.7222L32.5454 19.899L31.8232 19.1768L32 19ZM34.1667 21.1667L34.3434 20.9899L35.7879 22.4343L35.6111 22.6111L35.4343 22.7879L33.9899 21.3434L34.1667 21.1667ZM37.0556 24.0556L37.2323 23.8788L38.6768 25.3232L38.5 25.5L38.3232 25.6768L36.8788 24.2323L37.0556 24.0556ZM39.9444 26.9444L40.1212 26.7677L41.5657 28.2121L41.3889 28.3889L41.2121 28.5657L39.7677 27.1212L39.9444 26.9444ZM42.8333 29.8333L43.0101 29.6566L44.4546 31.101L44.2778 31.2778L44.101 31.4546L42.6566 30.0101L42.8333 29.8333ZM45.7222 32.7222L45.899 32.5454L47.3434 33.9899L47.1667 34.1667L46.9899 34.3434L45.5454 32.899L45.7222 32.7222ZM48.6111 35.6111L48.7879 35.4343L50.2323 36.8788L50.0556 37.0556L49.8788 37.2323L48.4343 35.7879L48.6111 35.6111ZM51.5 38.5L51.6768 38.3232L53.1212 39.7677L52.9444 39.9444L52.7677 40.1212L51.3232 38.6768L51.5 38.5ZM54.3889 41.3889L54.5657 41.2121L56.0101 42.6566L55.8333 42.8333L55.6566 43.0101L54.2121 41.5657L54.3889 41.3889ZM57.2778 44.2778L57.4546 44.101L58.899 45.5454L58.7222 45.7222L58.5454 45.899L57.101 44.4546L57.2778 44.2778ZM60.1667 47.1667L60.3434 46.9899L61.7879 48.4343L61.6111 48.6111L61.4343 48.7879L59.9899 47.3434L60.1667 47.1667ZM63.0555 50.0555L63.2323 49.8788L64.6768 51.3232L64.5 51.5L64.3232 51.6768L62.8788 50.2323L63.0555 50.0555ZM65.9444 52.9444L66.1212 52.7677L67.5657 54.2121L67.3889 54.3889L67.2121 54.5657L65.7677 53.1212L65.9444 52.9444ZM68.8333 55.8333L69.0101 55.6565L70.4545 57.101L70.2778 57.2778L70.101 57.4545L68.6565 56.0101L68.8333 55.8333ZM71.7222 58.7222L71.899 58.5454L73.3434 59.9899L73.1667 60.1667L72.9899 60.3434L71.5454 58.899L71.7222 58.7222ZM74.6111 61.6111L74.7879 61.4343L76.2323 62.8788L76.0555 63.0555L75.8788 63.2323L74.4343 61.7879L74.6111 61.6111ZM77.5 64.5L77.6768 64.3232L79.1212 65.7677L78.9444 65.9444L78.7677 66.1212L77.3232 64.6768L77.5 64.5ZM80.3889 67.3889L80.5657 67.2121L82.0101 68.6565L81.8333 68.8333L81.6565 69.0101L80.2121 67.5657L80.3889 67.3889ZM83.2778 70.2778L83.4545 70.101L84.1768 70.8232L84 71L83.8232 71.1768L83.101 70.4545L83.2778 70.2778Z"></path>
<path fill="white" d="M121.25 107.999C121.251 107.861 121.363 107.749 121.501 107.75L123.751 107.761C123.889 107.762 124.001 107.874 124 108.012C123.999 108.15 123.887 108.262 123.749 108.261L121.749 108.251L121.739 110.251C121.738 110.389 121.626 110.501 121.488 110.5C121.35 110.499 121.238 110.387 121.239 110.249L121.25 107.999ZM173 160L172.822 160.176L172.107 159.454L172.285 159.278L172.462 159.102L173.178 159.824L173 160ZM170.854 157.833L170.677 158.009L169.246 156.565L169.424 156.389L169.601 156.213L171.032 157.657L170.854 157.833ZM167.993 154.944L167.815 155.12L166.385 153.676L166.562 153.5L166.74 153.324L168.171 154.769L167.993 154.944ZM165.132 152.056L164.954 152.231L163.524 150.787L163.701 150.611L163.879 150.435L165.31 151.88L165.132 152.056ZM162.271 149.167L162.093 149.343L160.663 147.898L160.84 147.722L161.018 147.546L162.448 148.991L162.271 149.167ZM159.41 146.278L159.232 146.454L157.802 145.009L157.979 144.833L158.157 144.657L159.587 146.102L159.41 146.278ZM156.549 143.389L156.371 143.565L154.94 142.12L155.118 141.944L155.296 141.769L156.726 143.213L156.549 143.389ZM153.688 140.5L153.51 140.676L152.079 139.231L152.257 139.056L152.435 138.88L153.865 140.324L153.688 140.5ZM150.826 137.611L150.649 137.787L149.218 136.343L149.396 136.167L149.573 135.991L151.004 137.435L150.826 137.611ZM147.965 134.722L147.788 134.898L146.357 133.454L146.535 133.278L146.712 133.102L148.143 134.546L147.965 134.722ZM145.104 131.833L144.927 132.009L143.496 130.565L143.674 130.389L143.851 130.213L145.282 131.657L145.104 131.833ZM142.243 128.944L142.065 129.12L140.635 127.676L140.813 127.5L140.99 127.324L142.421 128.769L142.243 128.944ZM139.382 126.056L139.204 126.231L137.774 124.787L137.951 124.611L138.129 124.435L139.56 125.88L139.382 126.056ZM136.521 123.167L136.343 123.343L134.913 121.898L135.09 121.722L135.268 121.546L136.698 122.991L136.521 123.167ZM133.66 120.278L133.482 120.454L132.052 119.009L132.229 118.833L132.407 118.657L133.837 120.102L133.66 120.278ZM130.799 117.389L130.621 117.565L129.19 116.12L129.368 115.944L129.546 115.769L130.976 117.213L130.799 117.389ZM127.938 114.5L127.76 114.676L126.329 113.231L126.507 113.056L126.685 112.88L128.115 114.324L127.938 114.5ZM125.076 111.611L124.899 111.787L123.468 110.343L123.646 110.167L123.823 109.991L125.254 111.435L125.076 111.611ZM122.215 108.722L122.038 108.898L121.322 108.176L121.5 108L121.678 107.824L122.393 108.546L122.215 108.722Z"></path>
<path fill="white" d="M120.75 71.0011C120.751 71.1392 120.863 71.2506 121.001 71.25L123.251 71.2399C123.389 71.2393 123.501 71.1268 123.5 70.9888C123.499 70.8507 123.387 70.7393 123.249 70.7399L121.249 70.7489L121.24 68.7489C121.239 68.6108 121.127 68.4994 120.989 68.5C120.851 68.5006 120.739 68.6131 120.74 68.7511L120.75 71.0011ZM173 19L172.824 18.8224C172.582 19.062 172.34 19.3017 172.099 19.5414L172.275 19.7189L172.451 19.8965C172.692 19.6568 172.934 19.4172 173.176 19.1776L173 19ZM170.824 21.1573L170.648 20.9798C170.164 21.4597 169.68 21.9396 169.197 22.4193L169.373 22.5967L169.549 22.7741C170.033 22.2945 170.516 21.8147 171 21.3348L170.824 21.1573ZM167.924 24.0357L167.748 23.8584C167.264 24.3389 166.78 24.8191 166.298 25.2988L166.474 25.4761L166.65 25.6534C167.133 25.1738 167.616 24.6937 168.1 24.2131L167.924 24.0357ZM165.025 26.9166L164.849 26.7393C164.365 27.2201 163.882 27.7001 163.401 28.1792L163.577 28.3564L163.754 28.5336C164.235 28.0546 164.718 27.5746 165.201 27.0939L165.025 26.9166ZM162.128 29.799L161.951 29.6218C161.468 30.1031 160.986 30.5832 160.505 31.062L160.681 31.2391L160.858 31.4162C161.338 30.9375 161.821 30.4574 162.304 29.9762L162.128 29.799ZM159.233 32.6821L159.056 32.505C158.572 32.9875 158.089 33.4686 157.609 33.9478L157.785 34.1249L157.962 34.3019C158.442 33.8227 158.925 33.3417 159.409 32.8591L159.233 32.6821ZM156.341 35.5646L156.165 35.3876C155.679 35.8718 155.196 36.354 154.715 36.834L154.892 37.0109L155.068 37.1879C155.549 36.7079 156.032 36.2258 156.518 35.7416L156.341 35.5646ZM153.447 38.4532L153.27 38.2763C152.786 38.7597 152.304 39.2406 151.825 39.7188L152.002 39.8957L152.179 40.0726C152.657 39.5944 153.139 39.1135 153.623 38.6301L153.447 38.4532ZM150.554 41.3425L150.377 41.1657C149.893 41.6494 149.412 42.1301 148.934 42.6075L149.111 42.7843L149.288 42.9612C149.765 42.4838 150.246 42.0031 150.731 41.5194L150.554 41.3425ZM147.666 44.229L147.49 44.0523C147.003 44.5387 146.521 45.0214 146.042 45.5001L146.219 45.6768L146.396 45.8536C146.874 45.3749 147.357 44.8922 147.843 44.4058L147.666 44.229ZM144.777 47.1195L144.601 46.9428C144.115 47.4288 143.634 47.9102 143.158 48.3867L143.335 48.5634L143.512 48.74C143.988 48.2635 144.469 47.7822 144.954 47.2962L144.777 47.1195ZM141.887 50.0136L141.71 49.8369C141.223 50.3246 140.742 50.8067 140.267 51.2827L140.444 51.4593L140.621 51.6359C141.096 51.1599 141.577 50.6778 142.064 50.1902L141.887 50.0136ZM139.006 52.9006L138.829 52.724C138.341 53.214 137.859 53.697 137.385 54.1725L137.562 54.349L137.739 54.5255C138.213 54.05 138.695 53.5671 139.183 53.0771L139.006 52.9006ZM136.115 55.8L135.938 55.6235C135.448 56.1154 134.967 56.5984 134.495 57.072L134.672 57.2484L134.849 57.4249C135.321 56.9513 135.802 56.4683 136.293 55.9765L136.115 55.8ZM133.231 58.6951L133.054 58.5187C132.562 59.0126 132.082 59.4949 131.614 59.9648L131.791 60.1412L131.968 60.3176C132.436 59.8477 132.916 59.3654 133.408 58.8715L133.231 58.6951ZM130.351 61.5881L130.174 61.4117C129.677 61.9115 129.196 62.3948 128.732 62.8608L128.91 63.0371L129.087 63.2134C129.55 62.7474 130.031 62.2641 130.528 61.7644L130.351 61.5881ZM127.466 64.4886L127.289 64.3123C126.781 64.8227 126.3 65.307 125.846 65.764L126.023 65.9402L126.201 66.1164C126.655 65.6595 127.136 65.1752 127.643 64.6648L127.466 64.4886ZM124.591 67.3817L124.414 67.2055C123.874 67.7487 123.39 68.2362 122.965 68.6644L123.142 68.8405L123.32 69.0167C123.745 68.5885 124.229 68.101 124.768 67.5579L124.591 67.3817ZM121.713 70.2812L121.535 70.1051C121.302 70.3406 121.123 70.5203 121.004 70.6412C120.944 70.7016 120.898 70.7473 120.868 70.7779C120.853 70.7932 120.842 70.8047 120.834 70.8124C120.83 70.8163 120.827 70.8192 120.825 70.8211C120.824 70.8221 120.824 70.8228 120.823 70.8233C120.823 70.8235 120.823 70.8237 120.823 70.8238C120.823 70.8239 120.823 70.8239 120.822 70.824C120.822 70.824 120.822 70.824 120.822 70.824C120.822 70.824 120.822 70.824 120.822 70.824C120.822 70.824 120.822 70.824 121 71C121.178 71.176 121.178 71.176 121.178 71.176C121.178 71.176 121.178 71.176 121.178 71.176C121.178 71.176 121.178 71.176 121.178 71.1759C121.178 71.1759 121.178 71.1759 121.178 71.1758C121.178 71.1757 121.178 71.1755 121.178 71.1753C121.179 71.1748 121.179 71.1741 121.18 71.1731C121.182 71.1712 121.185 71.1683 121.189 71.1644C121.197 71.1567 121.208 71.1452 121.223 71.1299C121.254 71.0993 121.299 71.0536 121.359 70.9932C121.479 70.8724 121.657 70.6927 121.89 70.4572L121.713 70.2812Z"></path>
<circle fill="#FBF6EC" r="3" cy="90" cx="103"></circle>
</svg>
